<?xml version="1.0" encoding="UTF-8" standalone="no"?>
<svg
   xmlns:dc="http://purl.org/dc/elements/1.1/"
   xmlns:cc="http://creativecommons.org/ns#"
   xmlns:rdf="http://www.w3.org/1999/02/22-rdf-syntax-ns#"
   xmlns:svg="http://www.w3.org/2000/svg"
   xmlns="http://www.w3.org/2000/svg"
   viewBox="0 0 801.552 789.38934"
   height="789.38934"
   width="801.552"
   xml:space="preserve"
   id="svg2"
   version="1.1"><metadata
     id="metadata8"><rdf:RDF><cc:Work
         rdf:about=""><dc:format>image/svg+xml</dc:format><dc:type
           rdf:resource="http://purl.org/dc/dcmitype/StillImage" /></cc:Work></rdf:RDF></metadata><defs
     id="defs6"><clipPath
       id="clipPath18"
       clipPathUnits="userSpaceOnUse"><path
         id="path16"
         d="M 0,592.042 H 601.164 V 0 H 0 Z" /></clipPath></defs><g
     transform="matrix(1.3333333,0,0,-1.3333333,0,789.38933)"
     id="g10"><g
       id="g12"><g
         clip-path="url(#clipPath18)"
         id="g14"><g
           transform="translate(365.5465,538.4055)"
           id="g20"><path
             id="path22"
             style="fill:#242424;fill-opacity:1;fill-rule:nonzero;stroke:none"
             d="m 0,0 c 16.633,-34.668 46.234,-82.266 95.135,-120.548 l 32.364,15.252 C 101.907,-87.62 46.252,-47.214 0,0 m 93.989,-140.3 c -1.949,0 -3.879,0.624 -5.495,1.839 C -5.78,-67.391 -34.668,37.71 -35.85,42.147 c -1.123,4.2 0.873,8.614 4.764,10.539 3.885,1.93 8.614,0.848 11.263,-2.591 58.608,-75.817 165.962,-146.085 171.178,-149.475 2.857,-1.823 4.502,-5.114 4.182,-8.545 -0.35,-3.751 -2.958,-6.908 -6.582,-7.936 -0.968,-0.273 -1.942,-0.568 -2.905,-0.868 L 97.88,-139.43 c -1.242,-0.582 -2.567,-0.87 -3.891,-0.87" /></g><g
           transform="translate(485.6964,409.4699)"
           id="g24"><path
             id="path26"
             style="fill:#242424;fill-opacity:1;fill-rule:nonzero;stroke:none"
             d="m 0,0 c -0.208,-2.697 1.931,-10.019 6.338,-15.808 5.21,-6.845 12.648,-11.046 21.267,-15.911 6.321,-3.567 12.855,-7.256 19.39,-12.43 9.302,-7.339 20.892,-16.488 27.361,-29.218 3.012,-5.931 4.324,-12.139 5.489,-17.615 0.867,-4.094 1.687,-7.961 3.083,-11.33 1.004,-2.411 1.871,-3.845 2.471,-4.666 3.552,3.226 9.267,14.285 11.233,23.596 2.566,12.127 -3.944,19.229 -15.671,30.738 -3.659,3.591 -7.443,7.304 -10.936,11.454 -4.746,5.627 -9.088,11.55 -13.288,17.277 C 46.49,-9.941 36.765,3.314 22.591,10.642 Z m 85.001,-125.903 c -7.978,0 -14.346,5.584 -18.926,16.591 -2.044,4.937 -3.083,9.82 -4.081,14.542 -1.022,4.809 -1.984,9.347 -3.909,13.14 -4.651,9.151 -14.084,16.598 -22.413,23.165 -5.423,4.301 -11.328,7.633 -17.037,10.856 -9.505,5.364 -19.336,10.912 -26.821,20.75 -4.484,5.892 -12.237,20.098 -9.469,31.659 1.218,5.073 4.373,9.067 8.887,11.242 l 27.462,12.932 c 2.347,1.108 5.05,1.159 7.444,0.148 20.785,-8.797 33.254,-25.799 45.313,-42.241 4.022,-5.484 8.18,-11.153 12.534,-16.316 2.934,-3.49 6.249,-6.739 9.754,-10.181 11.958,-11.736 25.514,-25.033 20.75,-47.541 -2.127,-10.051 -12.107,-38.746 -29.488,-38.746" /></g><g
           transform="translate(69.8351,447.0363)"
           id="g28"><path
             id="path30"
             style="fill:#242424;fill-opacity:1;fill-rule:nonzero;stroke:none"
             d="m 0,0 c 0.855,0 1.711,-0.121 2.542,-0.362 14.596,-4.233 24.457,-13.645 27.766,-26.506 4.009,-15.6 -2.186,-34.469 -15.79,-48.072 l -28.181,-28.178 c -14.762,-14.766 -14.762,-38.788 0,-53.553 l 261.038,-261.032 c 7.146,-7.146 16.657,-11.084 26.779,-11.084 10.117,0 19.621,3.938 26.773,11.084 l 155.062,155.056 c 14.761,14.767 14.761,38.791 0,53.552 L 194.951,51.943 c -7.158,7.158 -16.669,11.1 -26.779,11.1 -10.105,0 -19.615,-3.942 -26.774,-11.1 l -27.997,-28 C 102.769,13.313 88.446,6.966 75.08,6.966 c -17.554,0 -31.145,10.935 -36.361,29.259 -0.326,1.149 -0.427,2.352 -0.291,3.541 1.574,13.68 -3.124,27.129 -12.89,36.898 -8.543,8.539 -19.889,13.244 -31.959,13.244 -12.071,0 -23.417,-4.705 -31.96,-13.244 C -46.899,68.143 -51.592,56.809 -51.586,44.746 -51.58,32.679 -46.875,21.329 -38.339,12.79 -28.538,2.991 -14.821,-1.729 -1.105,-0.068 -0.737,-0.023 -0.369,0 0,0 m 274.154,-447.036 c -14.993,0 -29.09,5.833 -39.682,16.431 l -261.037,261.032 c -21.879,21.878 -21.879,57.478 0,79.357 l 28.181,28.178 c 8.845,8.849 13.377,21.445 11.013,30.629 -1.568,6.109 -6.125,10.481 -13.556,13.013 -18.831,-1.67 -37.038,5.006 -50.315,18.284 -11.982,11.981 -18.587,27.911 -18.593,44.852 -0.006,16.94 6.582,32.86 18.552,44.826 11.988,11.988 27.92,18.59 44.862,18.59 16.942,0 32.873,-6.602 44.861,-18.59 13.259,-13.258 19.871,-31.356 18.314,-49.917 3.19,-9.582 9.344,-14.435 18.326,-14.435 8.507,0 18.243,4.456 25.419,11.632 l 27.997,28 c 10.604,10.606 24.694,16.445 39.676,16.445 14.987,0 29.078,-5.839 39.682,-16.445 l 261.037,-261.038 c 21.879,-21.872 21.879,-57.473 0,-79.358 L 313.83,-430.605 c -10.598,-10.598 -24.688,-16.431 -39.676,-16.431" /></g><g
           transform="translate(63.4137,510.3049)"
           id="g32"><path
             id="path34"
             style="fill:#242424;fill-opacity:1;fill-rule:nonzero;stroke:none"
             d="m 0,0 c -4.966,0 -9.629,-1.931 -13.134,-5.436 -7.212,-7.214 -7.194,-18.976 0.047,-26.214 7.01,-7.004 19.164,-7.007 26.173,0.003 3.511,3.507 5.448,8.168 5.459,13.119 0.007,4.945 -1.918,9.596 -5.417,13.095 C 9.623,-1.928 4.96,0 0,0 m 0,-55.332 c -9.808,0 -19.039,3.826 -25.989,10.776 -14.352,14.355 -14.376,37.692 -0.048,52.026 6.951,6.953 16.2,10.778 26.037,10.778 9.837,0 19.08,-3.828 26.03,-10.778 C 32.987,0.517 36.806,-8.727 36.794,-18.555 36.776,-28.371 32.939,-37.605 25.989,-44.556 19.039,-51.506 9.807,-55.332 0,-55.332" /></g><g
           transform="translate(300.1906,328.799)"
           id="g36"><path
             id="path38"
             style="fill:#242424;fill-opacity:1;fill-rule:nonzero;stroke:none"
             d="m 0,0 c -44.268,0 -91.571,-16.701 -91.571,-63.579 0,-43.645 41.078,-79.155 91.571,-79.155 50.487,0 91.565,35.51 91.565,79.155 C 91.565,-16.701 44.268,0 0,0 m 0,-160.983 c -60.556,0 -109.819,43.697 -109.819,97.404 0,49.709 43.109,81.828 109.819,81.828 66.71,0 109.814,-32.119 109.814,-81.828 0,-53.707 -49.264,-97.404 -109.814,-97.404" /></g><g
           transform="translate(249.5846,262.9563)"
           id="g40"><path
             id="path42"
             style="fill:#242424;fill-opacity:1;fill-rule:nonzero;stroke:none"
             d="M 0,0 C -0.85,0 -1.705,0.119 -2.548,0.368 -5.911,1.343 -8.417,4.164 -9,7.615 c -3.469,20.688 15.059,48.273 26.405,57.902 10.562,8.963 20.263,16.389 20.667,16.701 3.113,2.364 7.372,2.492 10.61,0.339 3.243,-2.168 4.752,-6.158 3.754,-9.93 C 45.557,46.703 10.734,7.426 6.79,3.03 5.032,1.075 2.548,0 0,0" /></g><g
           transform="translate(260.2951,337.3537)"
           id="g44"><path
             id="path46"
             style="fill:#242424;fill-opacity:1;fill-rule:nonzero;stroke:none"
             d="m 0,0 c -23.761,0 -47.986,3.531 -49.008,3.683 -3.469,0.511 -6.332,2.962 -7.378,6.305 -1.045,3.348 -0.083,6.995 2.477,9.386 11.994,11.21 33.724,12.419 42.504,12.419 7.716,0 14.94,-0.858 20.345,-2.421 13.307,-3.847 24.855,-7.823 25.336,-7.99 3.689,-1.274 6.16,-4.752 6.148,-8.652 C 40.413,8.827 37.923,5.367 34.229,4.113 26.049,1.346 14.857,0 0,0" /></g><g
           transform="translate(340.8703,337.3537)"
           id="g48"><path
             id="path50"
             style="fill:#242424;fill-opacity:1;fill-rule:nonzero;stroke:none"
             d="m 0,0 c -23.755,0 -47.98,3.531 -49.002,3.683 -3.469,0.511 -6.332,2.962 -7.378,6.305 -1.045,3.345 -0.083,6.992 2.477,9.386 11.988,11.21 33.718,12.419 42.504,12.419 7.716,0 14.94,-0.858 20.339,-2.421 13.307,-3.847 24.855,-7.823 25.336,-7.99 3.689,-1.274 6.16,-4.752 6.148,-8.652 C 40.413,8.827 37.923,5.367 34.229,4.113 26.049,1.346 14.857,0 0,0" /></g><g
           transform="translate(355.9709,286.7121)"
           id="g52"><path
             id="path54"
             style="fill:#242424;fill-opacity:1;fill-rule:nonzero;stroke:none"
             d="m 0,0 c -0.523,0 -1.058,0.045 -1.586,0.14 -26.411,4.663 -68.487,36.054 -73.197,39.619 -2.792,2.115 -4.129,5.643 -3.44,9.077 0.695,3.436 3.291,6.172 6.683,7.039 2.578,0.659 5.4,0.995 8.394,0.995 18.908,0 42.069,-13.027 51.521,-22.428 C -3.469,26.334 3.57,18.732 5.928,16.164 7.954,14.488 9.243,11.958 9.243,9.124 9.243,4.084 5.162,0 0.119,0 0.065,0.003 0.047,0 0,0" /></g></g></g></g></svg>