<?xml version="1.0" encoding="UTF-8" standalone="no"?>
<svg
   xmlns:dc="http://purl.org/dc/elements/1.1/"
   xmlns:cc="http://creativecommons.org/ns#"
   xmlns:rdf="http://www.w3.org/1999/02/22-rdf-syntax-ns#"
   xmlns:svg="http://www.w3.org/2000/svg"
   xmlns="http://www.w3.org/2000/svg"
   viewBox="0 0 66.666664 63.816532"
   height="63.816532"
   width="66.666664"
   xml:space="preserve"
   id="svg2"
   version="1.1"><metadata
     id="metadata8"><rdf:RDF><cc:Work
         rdf:about=""><dc:format>image/svg+xml</dc:format><dc:type
           rdf:resource="http://purl.org/dc/dcmitype/StillImage" /></cc:Work></rdf:RDF></metadata><defs
     id="defs6"><clipPath
       id="clipPath22"
       clipPathUnits="userSpaceOnUse"><path
         id="path20"
         d="M 0,47.862 H 50 V 0 H 0 Z" /></clipPath></defs><g
     transform="matrix(1.3333333,0,0,-1.3333333,0,63.816533)"
     id="g10"><g
       transform="translate(9.4563,47.862)"
       id="g12"><path
         id="path14"
         style="fill:#242424;fill-opacity:1;fill-rule:nonzero;stroke:none"
         d="m 0,0 v -5.901 h 1.74 v 4.162 h 27.608 v -4.162 h 1.739 V 0 Z" /></g><g
       id="g16"><g
         clip-path="url(#clipPath22)"
         id="g18"><g
           transform="translate(1.7393,35.1471)"
           id="g24"><path
             id="path26"
             style="fill:#242424;fill-opacity:1;fill-rule:nonzero;stroke:none"
             d="m 0,0 c 0,1.359 1.106,2.466 2.466,2.466 h 41.59 c 1.36,0 2.465,-1.107 2.465,-2.466 v -14.819 c 0,-1.36 -1.105,-2.466 -2.465,-2.466 H 40.87 39.021 38.876 v 4.493 h 2.428 v 1.739 H 5.217 v -1.739 h 2.428 v -4.493 H 7.5 2.466 c -1.36,0 -2.466,1.106 -2.466,2.466 z m 37.138,-25.074 h -8.334 v -8.334 H 9.384 v 20.616 h 27.754 z m -6.595,-7.104 v 5.365 h 5.365 z M 2.466,-19.024 h 5.179 v -16.123 h 22.389 l 8.842,8.843 v 7.28 h 5.18 c 2.319,0 4.205,1.886 4.205,4.205 V 0 c 0,2.318 -1.886,4.205 -4.205,4.205 H 2.466 C 0.147,4.205 -1.739,2.318 -1.739,0 v -14.819 c 0,-2.319 1.886,-4.205 4.205,-4.205" /></g><g
           transform="translate(17,17.7789)"
           id="g28"><path
             id="path30"
             style="fill:none;stroke:#242424;stroke-width:2;stroke-linecap:round;stroke-linejoin:round;stroke-miterlimit:10;stroke-dasharray:none;stroke-opacity:1"
             d="M 0,0 H 18" /></g><g
           transform="translate(17,13.7789)"
           id="g32"><path
             id="path34"
             style="fill:none;stroke:#242424;stroke-width:2;stroke-linecap:round;stroke-linejoin:round;stroke-miterlimit:10;stroke-dasharray:none;stroke-opacity:1"
             d="M 0,0 H 16" /></g></g></g></g></svg>