<?xml version="1.0" encoding="UTF-8" standalone="no"?>
<svg
   xmlns:dc="http://purl.org/dc/elements/1.1/"
   xmlns:cc="http://creativecommons.org/ns#"
   xmlns:rdf="http://www.w3.org/1999/02/22-rdf-syntax-ns#"
   xmlns:svg="http://www.w3.org/2000/svg"
   xmlns="http://www.w3.org/2000/svg"
   viewBox="0 0 740.25336 834.98535"
   height="834.98535"
   width="740.25336"
   xml:space="preserve"
   id="svg2"
   version="1.1"><metadata
     id="metadata8"><rdf:RDF><cc:Work
         rdf:about=""><dc:format>image/svg+xml</dc:format><dc:type
           rdf:resource="http://purl.org/dc/dcmitype/StillImage" /></cc:Work></rdf:RDF></metadata><defs
     id="defs6"><clipPath
       id="clipPath18"
       clipPathUnits="userSpaceOnUse"><path
         id="path16"
         d="M 0,626.239 H 555.19 V 0 H 0 Z" /></clipPath></defs><g
     transform="matrix(1.3333333,0,0,-1.3333333,0,834.98533)"
     id="g10"><g
       id="g12"><g
         clip-path="url(#clipPath18)"
         id="g14"><path
           id="path20"
           style="fill:#242424;fill-opacity:1;fill-rule:nonzero;stroke:none"
           d="M 39.417,386.693 H 57.666 V 524.959 H 39.417 Z M 57.666,231.943 H 39.417 V 93.677 H 57.666 Z M 527.268,626.239 H 67.337 c -15.389,0 -27.92,-12.531 -27.92,-27.921 v -65.147 h 18.249 v 65.147 c 0,5.353 4.318,9.672 9.671,9.672 h 459.931 c 5.351,0 9.673,-4.319 9.673,-9.672 V 27.921 c 0,-5.292 -4.322,-9.672 -9.673,-9.672 H 67.337 c -5.353,0 -9.671,4.38 -9.671,9.672 V 85.466 H 39.417 V 27.921 C 39.417,12.531 51.948,0 67.337,0 h 459.931 c 15.391,0 27.922,12.531 27.922,27.921 v 570.397 c 0,15.39 -12.531,27.921 -27.922,27.921 M 39.417,240.215 H 57.666 V 378.42 H 39.417 Z" /><path
           id="path22"
           style="fill:#242424;fill-opacity:1;fill-rule:nonzero;stroke:none"
           d="M 122.146,85.466 H 18.25 v 8.212 h 103.896 z m 9.125,26.461 H 9.124 C 4.075,111.927 0,107.851 0,102.803 V 76.341 c 0,-5.049 4.075,-9.124 9.124,-9.124 h 122.147 c 4.986,0 9.124,4.075 9.124,9.124 v 26.462 c 0,5.048 -4.138,9.124 -9.124,9.124" /><path
           id="path24"
           style="fill:#242424;fill-opacity:1;fill-rule:nonzero;stroke:none"
           d="M 122.146,231.943 H 18.25 v 8.271 h 103.896 z m 9.125,26.521 H 9.124 C 4.075,258.464 0,254.328 0,249.34 v -26.522 c 0,-5.048 4.075,-9.124 9.124,-9.124 h 122.147 c 4.986,0 9.124,4.076 9.124,9.124 v 26.522 c 0,4.988 -4.138,9.124 -9.124,9.124" /><path
           id="path26"
           style="fill:#242424;fill-opacity:1;fill-rule:nonzero;stroke:none"
           d="M 122.146,378.42 H 18.25 v 8.272 h 103.896 z m 9.125,26.522 H 9.124 C 4.075,404.942 0,400.866 0,395.818 v -26.522 c 0,-4.988 4.075,-9.125 9.124,-9.125 h 122.147 c 4.986,0 9.124,4.137 9.124,9.125 v 26.522 c 0,5.048 -4.138,9.124 -9.124,9.124" /><path
           id="path28"
           style="fill:#242424;fill-opacity:1;fill-rule:nonzero;stroke:none"
           d="M 122.146,524.958 H 18.25 v 8.213 h 103.896 z m 9.125,26.461 H 9.124 C 4.075,551.419 0,547.344 0,542.295 v -26.462 c 0,-5.048 4.075,-9.124 9.124,-9.124 h 122.147 c 4.986,0 9.124,4.076 9.124,9.124 v 26.462 c 0,5.049 -4.138,9.124 -9.124,9.124" /><g
           transform="translate(493.2413,507.8868)"
           id="g30"><path
             id="path32"
             style="fill:#242424;fill-opacity:1;fill-rule:nonzero;stroke:none"
             d="m 0,0 h -304.604 c -5.039,0 -9.125,4.087 -9.125,9.124 0,5.038 4.086,9.125 9.125,9.125 L 0,18.249 c 5.037,0 9.124,-4.087 9.124,-9.125 C 9.124,4.087 5.037,0 0,0" /></g><g
           transform="translate(493.2413,371.9708)"
           id="g34"><path
             id="path36"
             style="fill:#242424;fill-opacity:1;fill-rule:nonzero;stroke:none"
             d="m 0,0 h -304.604 c -5.039,0 -9.125,4.087 -9.125,9.125 0,5.037 4.086,9.124 9.125,9.124 L 0,18.249 c 5.037,0 9.124,-4.087 9.124,-9.124 C 9.124,4.087 5.037,0 0,0" /></g><g
           transform="translate(493.2413,236.0499)"
           id="g38"><path
             id="path40"
             style="fill:#242424;fill-opacity:1;fill-rule:nonzero;stroke:none"
             d="m 0,0 h -304.604 c -5.039,0 -9.125,4.087 -9.125,9.124 0,5.037 4.086,9.124 9.125,9.124 H 0 c 5.037,0 9.124,-4.087 9.124,-9.124 C 9.124,4.087 5.037,0 0,0" /></g><g
           transform="translate(493.2413,100.1281)"
           id="g42"><path
             id="path44"
             style="fill:#242424;fill-opacity:1;fill-rule:nonzero;stroke:none"
             d="m 0,0 h -304.604 c -5.039,0 -9.125,4.087 -9.125,9.124 0,5.038 4.086,9.125 9.125,9.125 L 0,18.249 c 5.037,0 9.124,-4.087 9.124,-9.125 C 9.124,4.087 5.037,0 0,0" /></g><g
           transform="translate(110.9512,584.2062)"
           id="g46"><path
             id="path48"
             style="fill:#242424;fill-opacity:1;fill-rule:nonzero;stroke:none"
             d="m 0,0 c -22.445,0 -41.85,-13.443 -50.365,-32.787 -1.218,-2.615 -2.193,-5.293 -2.92,-8.151 -0.912,-3.224 -1.461,-6.63 -1.705,-10.097 h 18.311 c 0.731,6.811 3.345,13.077 7.42,18.248 6.692,8.82 17.337,14.538 29.259,14.538 20.319,0 36.923,-16.546 36.923,-36.862 0,-20.378 -16.604,-36.923 -36.923,-36.923 -11.922,0 -22.567,5.717 -29.259,14.537 -4.012,5.171 -6.689,11.375 -7.42,18.249 H -54.99 c 0.244,-3.467 0.793,-6.814 1.705,-10.036 0.727,-2.86 1.702,-5.597 2.92,-8.213 8.515,-19.343 27.92,-32.786 50.365,-32.786 30.415,0 55.171,24.696 55.171,55.172 C 55.171,-24.697 30.415,0 0,0" /></g><g
           transform="translate(110.9512,437.7286)"
           id="g50"><path
             id="path52"
             style="fill:#242424;fill-opacity:1;fill-rule:nonzero;stroke:none"
             d="m 0,0 c -22.445,0 -41.85,-13.505 -50.365,-32.787 -1.218,-2.615 -2.193,-5.353 -2.92,-8.212 -0.912,-3.224 -1.461,-6.569 -1.705,-10.037 h 18.311 c 0.731,6.813 3.408,13.079 7.42,18.249 6.692,8.82 17.337,14.538 29.259,14.538 20.319,0 36.923,-16.546 36.923,-36.923 0,-20.317 -16.604,-36.924 -36.923,-36.924 -11.922,0 -22.567,5.718 -29.259,14.538 -4.012,5.171 -6.689,11.437 -7.42,18.249 H -54.99 c 0.244,-3.466 0.793,-6.812 1.705,-10.037 0.727,-2.858 1.702,-5.595 2.92,-8.212 8.515,-19.283 27.92,-32.787 50.365,-32.787 30.415,0 55.171,24.758 55.171,55.173 C 55.171,-24.757 30.415,0 0,0" /></g><g
           transform="translate(110.9512,291.2521)"
           id="g54"><path
             id="path56"
             style="fill:#242424;fill-opacity:1;fill-rule:nonzero;stroke:none"
             d="m 0,0 c -22.445,0 -41.85,-13.504 -50.365,-32.788 -1.218,-2.615 -2.193,-5.353 -2.92,-8.211 -0.912,-3.225 -1.461,-6.57 -1.705,-10.038 h 18.311 c 0.731,6.813 3.408,13.079 7.42,18.249 6.692,8.82 17.337,14.539 29.259,14.539 20.319,0 36.923,-16.606 36.923,-36.924 0,-20.378 -16.604,-36.924 -36.923,-36.924 -11.922,0 -22.567,5.719 -29.259,14.539 -4.012,5.17 -6.689,11.436 -7.42,18.249 H -54.99 c 0.244,-3.467 0.793,-6.813 1.705,-10.037 0.727,-2.859 1.702,-5.596 2.92,-8.212 8.515,-19.283 27.92,-32.788 50.365,-32.788 30.415,0 55.171,24.758 55.171,55.173 C 55.171,-24.758 30.415,0 0,0" /></g><g
           transform="translate(110.9512,144.713)"
           id="g58"><path
             id="path60"
             style="fill:#242424;fill-opacity:1;fill-rule:nonzero;stroke:none"
             d="m 0,0 c -22.505,0 -41.85,-13.504 -50.428,-32.786 -1.155,-2.616 -2.13,-5.354 -2.857,-8.152 -0.912,-3.224 -1.461,-6.63 -1.705,-10.097 h 18.311 c 0.731,6.812 3.345,13.078 7.361,18.249 6.691,8.82 17.337,14.538 29.318,14.538 20.319,0 36.923,-16.546 36.923,-36.862 0,-20.378 -16.604,-36.924 -36.923,-36.924 -11.922,0 -22.567,5.718 -29.259,14.538 -4.012,5.171 -6.689,11.435 -7.42,18.249 H -54.99 c 0.244,-3.467 0.793,-6.814 1.705,-10.098 0.727,-2.799 1.702,-5.535 2.92,-8.151 8.515,-19.344 27.92,-32.786 50.365,-32.786 30.415,0 55.171,24.696 55.171,55.172 C 55.171,-24.696 30.415,0 0,0" /></g></g></g></g></svg>