<?xml version="1.0" encoding="UTF-8" standalone="no"?>
<svg
   xmlns:dc="http://purl.org/dc/elements/1.1/"
   xmlns:cc="http://creativecommons.org/ns#"
   xmlns:rdf="http://www.w3.org/1999/02/22-rdf-syntax-ns#"
   xmlns:svg="http://www.w3.org/2000/svg"
   xmlns="http://www.w3.org/2000/svg"
   viewBox="0 0 50.666668 66.666664"
   height="66.666664"
   width="50.666668"
   xml:space="preserve"
   id="svg2"
   version="1.1"><metadata
     id="metadata8"><rdf:RDF><cc:Work
         rdf:about=""><dc:format>image/svg+xml</dc:format><dc:type
           rdf:resource="http://purl.org/dc/dcmitype/StillImage" /></cc:Work></rdf:RDF></metadata><defs
     id="defs6"><clipPath
       id="clipPath18"
       clipPathUnits="userSpaceOnUse"><path
         id="path16"
         d="M 0,50 H 38 V 0 H 0 Z" /></clipPath></defs><g
     transform="matrix(1.3333333,0,0,-1.3333333,0,66.666667)"
     id="g10"><g
       id="g12"><g
         clip-path="url(#clipPath18)"
         id="g14"><g
           transform="translate(7,34)"
           id="g20"><path
             id="path22"
             style="fill:none;stroke:#242424;stroke-width:2;stroke-linecap:round;stroke-linejoin:round;stroke-miterlimit:10;stroke-dasharray:none;stroke-opacity:1"
             d="m 0,0 c -3.313,0 -6,2.687 -6,6 0,3.313 2.687,6 6,6" /></g><g
           transform="translate(7,34)"
           id="g24"><path
             id="path26"
             style="fill:none;stroke:#242424;stroke-width:2;stroke-linecap:round;stroke-linejoin:round;stroke-miterlimit:10;stroke-dasharray:none;stroke-opacity:1"
             d="m 0,0 h 25 c 2.761,0 5,-2.239 5,-5 v -23 c 0,-2.761 -2.239,-5 -5,-5 H 0 c -3.313,0 -6,2.687 -6,6 V 6" /></g><g
           transform="translate(27,46)"
           id="g28"><path
             id="path30"
             style="fill:none;stroke:#242424;stroke-width:2;stroke-linecap:round;stroke-linejoin:round;stroke-miterlimit:10;stroke-dasharray:none;stroke-opacity:1"
             d="m 0,0 h 5 c 2.761,0 5,-2.239 5,-5 v -5.765" /></g><g
           transform="translate(7,46)"
           id="g32"><path
             id="path34"
             style="fill:none;stroke:#242424;stroke-width:2;stroke-linecap:round;stroke-linejoin:round;stroke-miterlimit:10;stroke-dasharray:none;stroke-opacity:1"
             d="M 0,0 H 15" /></g><g
           transform="translate(18,42)"
           id="g36"><path
             id="path38"
             style="fill:none;stroke:#242424;stroke-width:2;stroke-linecap:round;stroke-linejoin:round;stroke-miterlimit:10;stroke-dasharray:none;stroke-opacity:1"
             d="M 0,0 H 13.279" /></g><g
           transform="translate(8.2788,42)"
           id="g40"><path
             id="path42"
             style="fill:none;stroke:#242424;stroke-width:2;stroke-linecap:round;stroke-linejoin:round;stroke-miterlimit:10;stroke-dasharray:none;stroke-opacity:1"
             d="M 0,0 H 4.721" /></g><g
           transform="translate(8.2788,38)"
           id="g44"><path
             id="path46"
             style="fill:none;stroke:#242424;stroke-width:2;stroke-linecap:round;stroke-linejoin:round;stroke-miterlimit:10;stroke-dasharray:none;stroke-opacity:1"
             d="M 0,0 H 23" /></g><g
           transform="translate(24.5,49)"
           id="g48"><path
             id="path50"
             style="fill:none;stroke:#242424;stroke-width:2;stroke-linecap:round;stroke-linejoin:round;stroke-miterlimit:10;stroke-dasharray:none;stroke-opacity:1"
             d="M 0,0 C -1.381,0 -2.5,-1.119 -2.5,-2.5 V -7 h 5 v 4.5 C 2.5,-1.119 1.381,0 0,0 Z" /></g><g
           transform="translate(15.5,45)"
           id="g52"><path
             id="path54"
             style="fill:none;stroke:#242424;stroke-width:2;stroke-linecap:round;stroke-linejoin:round;stroke-miterlimit:10;stroke-dasharray:none;stroke-opacity:1"
             d="M 0,0 C -1.381,0 -2.5,-1.119 -2.5,-2.5 V -7 h 5 v 4.5 C 2.5,-1.119 1.381,0 0,0 Z" /></g><g
           transform="translate(22.8818,26.668)"
           id="g56"><path
             id="path58"
             style="fill:none;stroke:#242424;stroke-width:2;stroke-linecap:round;stroke-linejoin:round;stroke-miterlimit:10;stroke-dasharray:none;stroke-opacity:1"
             d="m 0,0 c -0.667,1.377 -2.106,2.332 -3.778,2.332 -1.672,0 -3.11,-0.956 -3.778,-2.333 -0.027,0.001 -0.052,0.004 -0.079,0.004 -2.306,0 -4.177,-1.659 -4.177,-3.705 0,-1.869 1.564,-3.411 3.594,-3.663 l 0.544,-4.328 c 0.035,-0.539 0.475,-0.975 0.983,-0.975 h 5.848 c 0.508,0 0.948,0.436 0.982,0.975 l 0.548,4.35 c 1.951,0.312 3.431,1.822 3.431,3.641 C 4.118,-1.673 2.279,-0.028 0,0 Z" /></g><g
           transform="translate(16,11)"
           id="g60"><path
             id="path62"
             style="fill:none;stroke:#242424;stroke-width:2;stroke-linecap:round;stroke-linejoin:round;stroke-miterlimit:10;stroke-dasharray:none;stroke-opacity:1"
             d="M 0,0 H 6" /></g><g
           transform="translate(17,8)"
           id="g64"><path
             id="path66"
             style="fill:none;stroke:#242424;stroke-width:2;stroke-linecap:round;stroke-linejoin:round;stroke-miterlimit:10;stroke-dasharray:none;stroke-opacity:1"
             d="M 0,0 H 4" /></g></g></g></g></svg>