<?xml version="1.0" encoding="UTF-8" standalone="no"?>
<svg
   xmlns:dc="http://purl.org/dc/elements/1.1/"
   xmlns:cc="http://creativecommons.org/ns#"
   xmlns:rdf="http://www.w3.org/1999/02/22-rdf-syntax-ns#"
   xmlns:svg="http://www.w3.org/2000/svg"
   xmlns="http://www.w3.org/2000/svg"
   viewBox="0 0 832.05865 647.98132"
   height="647.98132"
   width="832.05865"
   xml:space="preserve"
   id="svg2"
   version="1.1"><metadata
     id="metadata8"><rdf:RDF><cc:Work
         rdf:about=""><dc:format>image/svg+xml</dc:format><dc:type
           rdf:resource="http://purl.org/dc/dcmitype/StillImage" /></cc:Work></rdf:RDF></metadata><defs
     id="defs6"><clipPath
       id="clipPath18"
       clipPathUnits="userSpaceOnUse"><path
         id="path16"
         d="M 0,485.986 H 624.044 V 0 H 0 Z" /></clipPath></defs><g
     transform="matrix(1.3333333,0,0,-1.3333333,0,647.98133)"
     id="g10"><g
       id="g12"><g
         clip-path="url(#clipPath18)"
         id="g14"><g
           transform="translate(152.6876,55.7618)"
           id="g20"><path
             id="path22"
             style="fill:#242424;fill-opacity:1;fill-rule:nonzero;stroke:none"
             d="M 0,0 H 318.445 L 433.296,81.211 H -114.851 Z M 321.344,-18.248 H -2.899 c -1.889,0 -3.725,0.582 -5.269,1.675 l -140.662,99.46 c -3.243,2.293 -4.633,6.427 -3.428,10.211 1.206,3.79 4.723,6.362 8.697,6.362 h 605.567 c 3.974,0 7.491,-2.572 8.697,-6.362 1.206,-3.784 -0.184,-7.918 -3.428,-10.211 l -140.662,-99.46 c -1.544,-1.093 -3.38,-1.675 -5.269,-1.675" /></g><path
           id="path24"
           style="fill:#242424;fill-opacity:1;fill-rule:nonzero;stroke:none"
           d="M 158.913,18.249 H 462.971 V 37.514 H 158.913 Z M 472.095,0 H 149.789 c -5.038,0 -9.125,4.087 -9.125,9.124 v 37.514 c 0,5.037 4.087,9.124 9.125,9.124 h 322.306 c 5.038,0 9.125,-4.087 9.125,-9.124 V 9.124 C 481.22,4.087 477.133,0 472.095,0" /><g
           transform="translate(607.503,146.0841)"
           id="g26"><path
             id="path28"
             style="fill:#242424;fill-opacity:1;fill-rule:nonzero;stroke:none"
             d="m 0,0 c 0,-5.049 -4.075,-9.124 -9.125,-9.124 -5.049,0 -9.124,4.075 -9.124,9.124 0,101.402 -82.485,183.887 -183.887,183.887 -12.712,0 -25.062,-1.278 -37.044,-3.71 -6.145,-1.278 -12.107,-2.86 -18.005,-4.684 -29.016,-9.125 -54.931,-25.245 -75.793,-46.352 -4.26,-4.32 -8.335,-8.881 -12.167,-13.687 -6.145,-7.603 -11.678,-15.694 -16.546,-24.21 -3.101,-5.293 -5.902,-10.828 -8.394,-16.485 -4.928,-10.949 -8.821,-22.507 -11.435,-34.49 -2.251,-9.855 -3.713,-19.952 -4.197,-30.354 V 9.793 c -0.062,-0.183 -0.062,-0.426 -0.062,-0.669 -0.181,-3.041 -0.244,-6.082 -0.244,-9.124 0,-5.049 -4.137,-9.124 -9.124,-9.124 -5.05,0 -9.125,4.075 -9.125,9.124 0,3.042 0.063,6.083 0.181,9.124 0.428,8.455 1.28,16.789 2.679,25.001 1.094,6.448 2.555,12.835 4.257,19.101 2.92,10.827 6.813,21.29 11.438,31.327 2.554,5.535 5.352,10.949 8.394,16.18 4.927,8.578 10.461,16.789 16.606,24.515 3.832,4.866 7.906,9.489 12.166,13.99 15.816,16.607 34.368,30.597 55.05,41.06 5.414,2.737 10.888,5.231 16.546,7.543 5.718,2.251 11.62,4.319 17.578,6.083 5.78,1.703 11.741,3.163 17.702,4.319 12.775,2.555 25.974,3.893 39.539,3.893 C -90.694,202.136 0,111.5 0,0" /></g><g
           transform="translate(282.6212,155.2218)"
           id="g30"><path
             id="path32"
             style="fill:#242424;fill-opacity:1;fill-rule:nonzero;stroke:none"
             d="M 0,0 H 245.48 C 240.793,63.615 187.532,113.948 122.74,113.948 57.948,113.948 4.687,63.615 0,0 M 254.937,-18.249 H -9.457 c -5.037,0 -9.125,4.087 -9.125,9.125 0,77.926 63.396,141.321 141.322,141.321 77.926,0 141.321,-63.395 141.321,-141.321 0,-5.038 -4.086,-9.125 -9.124,-9.125" /></g><g
           transform="translate(348.4762,155.2218)"
           id="g34"><path
             id="path36"
             style="fill:#242424;fill-opacity:1;fill-rule:nonzero;stroke:none"
             d="M 0,0 H 113.77 C 109.386,27.444 85.547,48.485 56.885,48.485 28.223,48.485 4.384,27.444 0,0 M 123.619,-18.249 H -9.849 c -5.037,0 -9.125,4.087 -9.125,9.125 0,41.826 34.033,75.858 75.859,75.858 41.826,0 75.859,-34.032 75.859,-75.858 0,-5.038 -4.087,-9.125 -9.125,-9.125" /></g><g
           transform="translate(258.9518,285.3224)"
           id="g38"><path
             id="path40"
             style="fill:#242424;fill-opacity:1;fill-rule:nonzero;stroke:none"
             d="M 0,0 C -4.259,-4.501 -8.334,-9.124 -12.166,-13.99 -32.12,-3.284 -54.931,2.798 -79.141,2.798 c -78.288,0 -142.034,-63.749 -142.034,-142.036 0,-5.049 -4.078,-9.124 -9.124,-9.124 -4.99,0 -9.124,4.075 -9.124,9.124 0,88.384 71.899,160.285 160.282,160.285 C -50.368,21.047 -23.36,13.383 0,0" /></g><g
           transform="translate(230.1798,246.8175)"
           id="g42"><path
             id="path44"
             style="fill:#242424;fill-opacity:1;fill-rule:nonzero;stroke:none"
             d="m 0,0 c -3.042,-5.231 -5.839,-10.646 -8.394,-16.181 -12.653,6.327 -26.948,9.855 -41.975,9.855 -48.966,0 -89.358,-37.472 -93.92,-85.283 h 33.213 c -0.425,-2.981 -0.668,-6.022 -0.668,-9.124 0,-5.049 4.075,-9.124 9.124,-9.124 h -51.28 c -4.987,0 -9.124,4.075 -9.124,9.124 0,62.106 50.549,112.656 112.655,112.656 C -32.301,11.923 -15.148,7.604 0,0" /></g><g
           transform="translate(210.3477,199.3097)"
           id="g46"><path
             id="path48"
             style="fill:#242424;fill-opacity:1;fill-rule:nonzero;stroke:none"
             d="m 0,0 c -1.702,-6.266 -3.163,-12.652 -4.256,-19.101 -7.242,5.658 -16.366,9.003 -26.281,9.003 -20.681,0 -37.955,-14.599 -42.152,-34.004 h -18.555 c 4.381,29.564 29.931,52.253 60.707,52.253 C -19.404,8.151 -9.002,5.171 0,0" /></g><g
           transform="translate(365.8282,344.3272)"
           id="g50"><path
             id="path52"
             style="fill:#242424;fill-opacity:1;fill-rule:nonzero;stroke:none"
             d="m 0,0 c -5.961,-1.156 -11.922,-2.616 -17.702,-4.319 -10.34,50.123 -54.866,88.02 -108.032,88.02 -43.614,0 -81.329,-25.427 -99.272,-62.228 -2.983,5.17 -6.571,10.584 -10.767,16.18 -0.244,0.304 -0.488,0.609 -0.731,0.912 22.383,37.897 63.687,63.385 110.77,63.385 C -63.993,101.95 -12.226,58.152 0,0" /></g><g
           transform="translate(323.2945,322.0929)"
           id="g54"><path
             id="path56"
             style="fill:#242424;fill-opacity:1;fill-rule:nonzero;stroke:none"
             d="m 0,0 c -4.97,-0.822 -9.669,2.539 -10.492,7.512 -6.544,39.52 -44.02,66.35 -83.543,59.806 -39.524,-6.545 -66.351,-44.022 -59.807,-83.543 0.823,-4.972 -2.541,-9.67 -7.511,-10.492 -4.97,-0.823 -9.669,2.538 -10.493,7.511 -8.187,49.448 25.378,96.34 74.829,104.528 C -47.565,93.51 -0.676,59.941 7.511,10.493 8.335,5.521 4.97,0.823 0,0" /></g><g
           transform="translate(603.4429,463.2481)"
           id="g58"><path
             id="path60"
             style="fill:#242424;fill-opacity:1;fill-rule:nonzero;stroke:none"
             d="m 0,0 c -24.682,-9.074 -75.193,-30.177 -98.96,-58.355 -14.269,-16.918 -21.392,-31.389 -21.172,-43.011 0.166,-8.837 4.604,-16.628 13.954,-24.517 7.918,-6.674 15.296,-9.92 22.573,-9.92 12.469,0 26.856,9.564 42.765,28.422 C -17.043,-79.164 -4.776,-25.85 0,0 m -83.605,-154.052 c -11.762,0 -22.995,4.652 -34.335,14.222 -13.485,11.366 -20.168,23.838 -20.435,38.119 -0.315,16.404 8.02,34.433 25.466,55.12 35.429,42.014 118.196,67.849 121.701,68.927 2.964,0.908 6.202,0.255 8.565,-1.747 2.377,-2.002 3.571,-5.069 3.167,-8.151 -0.469,-3.634 -11.982,-89.571 -47.416,-131.584 -19.805,-23.489 -38.357,-34.906 -56.713,-34.906" /></g><g
           transform="translate(491.378,321.2677)"
           id="g62"><path
             id="path64"
             style="fill:#242424;fill-opacity:1;fill-rule:nonzero;stroke:none"
             d="m 0,0 c -2.073,0 -4.165,0.703 -5.875,2.15 -3.855,3.249 -4.343,9.005 -1.093,12.858 L 79.31,117.307 c 3.249,3.843 9.005,4.345 12.855,1.09 3.855,-3.25 4.342,-9.005 1.093,-12.858 L 6.979,3.24 C 5.174,1.102 2.596,0 0,0" /></g><g
           transform="translate(422.6339,420.9161)"
           id="g66"><path
             id="path68"
             style="fill:#242424;fill-opacity:1;fill-rule:nonzero;stroke:none"
             d="M 0,0 C -15.279,0 -27.712,-12.434 -27.712,-27.715 -27.712,-43 -15.279,-55.433 0,-55.433 15.285,-55.433 27.718,-43 27.718,-27.715 27.718,-12.434 15.285,0 0,0 m 0,-73.682 c -25.342,0 -45.96,20.619 -45.96,45.967 0,25.345 20.618,45.964 45.96,45.964 25.348,0 45.966,-20.619 45.966,-45.964 0,-25.348 -20.618,-45.967 -45.966,-45.967" /></g><g
           transform="translate(240.0821,364.7628)"
           id="g70"><path
             id="path72"
             style="fill:#242424;fill-opacity:1;fill-rule:nonzero;stroke:none"
             d="m 0,0 c -15.284,0 -27.718,-12.434 -27.718,-27.715 0,-15.282 12.434,-27.715 27.718,-27.715 15.285,0 27.718,12.433 27.718,27.715 C 27.718,-12.434 15.285,0 0,0 m 0,-73.679 c -25.347,0 -45.966,20.619 -45.966,45.964 0,25.345 20.619,45.964 45.966,45.964 25.348,0 45.967,-20.619 45.967,-45.964 C 45.967,-53.06 25.348,-73.679 0,-73.679" /></g><g
           transform="translate(54.6241,325.4083)"
           id="g74"><path
             id="path76"
             style="fill:#242424;fill-opacity:1;fill-rule:nonzero;stroke:none"
             d="m 0,0 c -22.14,29.442 -31.386,83.397 -34.671,109.493 24.15,-10.462 73.36,-34.429 95.5,-63.871 1.765,-2.31 3.348,-4.561 4.806,-6.812 C 71.475,30.232 75.431,22.325 77.62,15.329 79.203,10.28 79.809,5.658 79.506,1.461 79.019,-4.987 76.28,-10.705 71.05,-16.18 69.104,-18.248 66.853,-20.194 64.177,-22.202 61.5,-24.21 58.946,-25.853 56.451,-27.129 51.586,-29.684 47.024,-30.9 42.521,-30.9 29.625,-30.9 15.332,-20.499 0,0 m 97.389,9.977 c -1.155,9.368 -4.806,19.465 -11.191,30.415 -2.983,5.17 -6.571,10.584 -10.767,16.18 -0.244,0.304 -0.488,0.609 -0.731,0.912 -33.456,43.432 -113.446,73.543 -116.853,74.821 -2.92,1.094 -6.205,0.608 -8.7,-1.278 -2.432,-1.825 -3.831,-4.805 -3.588,-7.908 0.244,-3.649 6.814,-90.149 39.842,-134.068 16.12,-21.533 31.936,-33.882 47.936,-37.166 3.041,-0.731 6.083,-1.034 9.184,-1.034 10.461,0 20.682,3.771 31.327,11.496 0.424,0.244 0.852,0.548 1.277,0.851 5.717,4.259 10.279,8.76 13.808,13.566 3.042,4.136 5.234,8.394 6.755,12.956 v 0.061 c 1.033,3.285 1.764,6.752 2.004,10.281 0.244,3.223 0.122,6.508 -0.303,9.915" /></g><g
           transform="translate(124.2628,286.7599)"
           id="g78"><path
             id="path80"
             style="fill:#242424;fill-opacity:1;fill-rule:nonzero;stroke:none"
             d="m 0,0 c -2.774,0 -5.513,1.265 -7.307,3.653 l -80.301,107.051 c -3.024,4.031 -2.205,9.748 1.823,12.773 4.046,3.02 9.754,2.21 12.778,-1.825 L 7.295,14.602 C 10.318,10.57 9.499,4.853 5.471,1.829 3.826,0.6 1.907,0 0,0" /></g></g></g></g></svg>